# xmcd CD database file
#
# Track frame offsets:
#	150
#	15225
#	27862
#	48525
#	70050
#	89100
#	105225
#	121387
#	146625
#	168000
#	192625
#	207100
#	230725
#	243900
#	266200
#
# Disc length: 3771 seconds
#
# Revision: 0
# Processed by: cddbd v1.4PL0 Copyright (c) Steve Scherf et al.
# Submitted via: CDex 1.50
#
DISCID=cf0eb90f
DTITLE=New Orleans Heartbreakers - Meet Us Where We Play The Blues
DYEAR=1993
DGENRE=Jazz
TTITLE0=Dippermouth Blues
TTITLE1=I'm Getting Sentimental
TTITLE2=The Glory Of Love
TTITLE3=I'm Putting All My Eggs In One Basket
TTITLE4=Chloe
TTITLE5=Laughin' Samba
TTITLE6=Meet Me Where They Play The Blues
TTITLE7=I Want To Be Happy
TTITLE8=What A Friend We Have In Jesus
TTITLE9=There'll Be Some Changes Made
TTITLE10=Blues In The Air
TTITLE11=Girl Of My Dream
TTITLE12=Rum and Coca-Cola
TTITLE13=Oh' How I Miss You Tonight
TTITLE14=That's What I Like
EXTD=YEAR: 1993
EXTT0=
EXTT1=
EXTT2=
EXTT3=
EXTT4=
EXTT5=
EXTT6=
EXTT7=
EXTT8=
EXTT9=
EXTT10=
EXTT11=
EXTT12=
EXTT13=
EXTT14=
PLAYORDER=
